<?xml version="1.0" encoding="utf-8"?>
<!-- Generator: Adobe Illustrator 22.1.0, SVG Export Plug-In . SVG Version: 6.00 Build 0)  -->
<svg version="1.1" id="Layer_1" xmlns="http://www.w3.org/2000/svg" xmlns:xlink="http://www.w3.org/1999/xlink" x="0px" y="0px"
	 viewBox="0 0 700 200" style="enable-background:new 0 0 700 200;" xml:space="preserve">
<style type="text/css">
	.st0{fill:none;}
	.st1{fill:url(#SVGID_1_);}
	.st2{fill:#1E155D;}
	.st3{fill:url(#SVGID_2_);}
	.st4{fill:url(#SVGID_3_);}
	.st5{fill:url(#SVGID_4_);}
	.st6{fill:url(#SVGID_5_);}
	.st7{fill:url(#SVGID_6_);}
	.st8{fill:url(#SVGID_7_);}
	.st9{fill:url(#SVGID_8_);}
	.st10{fill:url(#SVGID_9_);}
	.st11{fill:url(#SVGID_10_);}
	.st12{fill:url(#SVGID_11_);}
	.st13{fill:url(#SVGID_12_);}
	.st14{fill:url(#SVGID_13_);}
	.st15{fill:url(#SVGID_14_);}
	.st16{fill:url(#SVGID_15_);}
	.st17{fill:url(#SVGID_16_);}
	.st18{fill:url(#SVGID_17_);}
	.st19{fill:url(#SVGID_18_);}
	.st20{fill:url(#SVGID_19_);}
	.st21{fill:url(#SVGID_20_);}
	.st22{fill:url(#SVGID_21_);}
	.st23{fill:url(#SVGID_22_);}
	.st24{fill:url(#SVGID_23_);}
	.st25{fill:url(#SVGID_24_);}
	.st26{fill:url(#SVGID_25_);}
	.st27{fill:url(#SVGID_26_);}
	.st28{fill:url(#SVGID_27_);}
	.st29{fill:url(#SVGID_28_);}
	.st30{fill:url(#SVGID_29_);}
	.st31{fill:url(#SVGID_30_);}
	.st32{fill:url(#SVGID_31_);}
	.st33{fill:url(#SVGID_32_);}
	.st34{fill:url(#SVGID_33_);}
	.st35{fill:url(#SVGID_34_);}
	.st36{fill:url(#SVGID_35_);}
	.st37{fill:url(#SVGID_36_);}
	.st38{fill:url(#SVGID_37_);}
	.st39{fill:url(#SVGID_38_);}
	.st40{fill:url(#SVGID_39_);}
	.st41{fill:url(#SVGID_40_);}
	.st42{fill:url(#SVGID_41_);}
</style>
<rect x="0.1" y="-1.8" class="st0" width="688.8" height="216.1"/>
<linearGradient id="SVGID_1_" gradientUnits="userSpaceOnUse" x1="542.8857" y1="62.2348" x2="643.535" y2="38.1995">
	<stop  offset="0.2" style="stop-color:#ED1C24"/>
	<stop  offset="0.3058" style="stop-color:#EF2E21"/>
	<stop  offset="0.5193" style="stop-color:#F35F18"/>
	<stop  offset="0.8181" style="stop-color:#FAAB09"/>
	<stop  offset="1" style="stop-color:#FFDD00"/>
</linearGradient>
<path class="st1" d="M574.8,23.5c-6.3,0.7-7.8,4-4.6,5l29.6,8.9c4.1,1.3,10.9,3.3,11.1,6.5c0.3,3.6-5.9,7.4-9.5,9.8l-41.7,27
	c-9,6.2-3.7,9,0.6,8.3c3.4-0.5,11.2-2.8,20.7-6.3c9.5-3.6,20.5-8.3,30.7-13.6c9.7-5.1,18.4-10.6,24.2-16c5.4-5.1,8.1-10.2,6.4-14.7
	c-1.6-4.3-6.1-7.4-12.1-9.7c-5.7-2.2-12.9-3.6-20.1-4.5c-7-0.9-14.2-1.3-20.3-1.4C583.7,22.9,579.2,23,574.8,23.5z"/>
<path class="st2" d="M439.3,108.8l-2.9-0.9c-5.8-1.7-14-4-14-10.2c0-6.2,5.1-9.5,11.2-9.5c7.4,0,10.2,3.5,10.7,9.6l0,0.5h11.2v-0.5
	C455.5,82.3,442.1,80,434.1,80c-11.2,0-23.2,4.9-23.2,18.7c0,12.4,11.9,16.2,21.5,19.2l2.5,0.8c5.3,1.7,10.6,3.9,10.6,9.3
	c0,6.7-5.6,10.3-12.6,10.3c-7.9,0-11.7-4.3-12.3-10.7l0-0.5h-11.3l0,0.5c0.6,12.3,9.1,19.3,23.3,19.3c11.3,0,24.5-5.2,24.5-19.9
	C457.1,115.8,448.3,111.9,439.3,108.8z M606.1,123.5c0-15.4-4.7-28.2-21.5-28.2c-15.7,0-23.4,11.2-23.4,26.7
	c0,15.1,7.8,25.1,22.9,25.1c10.8,0,20.1-5.1,21.9-17.4h-10.5c-0.8,6.5-4.9,10.2-11,10.2c-8.6,0-12.6-7.4-12.6-15.6v-0.8H606.1z
	 M584.4,102.5c7.8,0,11.1,6.6,11.1,14h-23.4C572.7,109,576.7,102.5,584.4,102.5z M636.8,96c-6.5,0-11.2,2.8-14.4,8.6l-0.2-8.2h-10.4
	V146h10.8v-25.3c0-9.1,3.3-14.6,12.5-14.6c1.3,0,2.6,0.2,4.1,0.4V96.2C638.4,96.2,637.5,96,636.8,96z M265,95.6
	c-8.4,0-17.4,3.6-17.5,13.9l0,0.5h6.8l0.1-0.5c0.7-5.9,3.9-8.4,10.7-8.4c7.9,0,11.3,3.6,11.3,11.9c0,1,0,1.9-0.1,2.8
	c-0.6,0-1.3,0-1.3,0c-10.7,0-30.5,0-30.5,16.5c0,10.9,9.4,14.8,17.4,14.8c7.4,0,11.4-2.1,15.2-7.2l0.1,6.1h6v-32.9
	C283.1,101,277.5,95.6,265,95.6z M262.9,141.7c-5.5,0-11.5-3-11.5-9.6c0-9.8,11.4-11.1,21.3-11.1c1.4,0,2.1,0.1,3.6,0.2
	C276.3,132.1,275.7,141.7,262.9,141.7z M83.1,81.1h-7L49.6,146h8c0,0,6.6-17.1,6.8-17.6c0.6,0,30.2,0,30.7,0
	c0.2,0.5,7.2,17.6,7.2,17.6h8.6L83.4,81.1H83.1z M67,121.8c0.4-1,11.7-30.1,12.4-31.9c0.7,1.8,12.6,30.8,13,31.9
	C91.2,121.8,68.1,121.8,67,121.8z M205.3,132.9c0,0,0-30,0-31c1,0,10.8,0,10.8,0v-5.4c0,0-9.9,0-10.8,0c0-1,0-13.8,0-13.8h-7v52.9
	c0,7.3,3.5,10.9,10.8,10.9c2.1,0,4.2-0.1,6.9-0.5l0.5-0.1v-6.1c0,0-2.7,0.6-5,0.6C205.9,140.4,205.3,138.1,205.3,132.9z M291,81.1
	V146h6.9V81.1h-0.5H291z M306,96.4V146h6.9V96.4h-0.5H306z M339.5,95.6c-8.4,0-17.4,3.6-17.5,13.9l0,0.5h6.8l0.1-0.5
	c0.7-5.9,3.9-8.4,10.7-8.4c7.9,0,11.3,3.6,11.3,11.9c0,1,0,1.9-0.1,2.8c-0.7,0-1.3,0-1.3,0c-10.7,0-30.5,0-30.5,16.5
	c0,10.9,9.4,14.8,17.4,14.8c7.4,0,11.4-2.1,15.2-7.2l0.1,6.1h6v-32.9C357.6,101,352,95.6,339.5,95.6z M337.4,141.7
	c-5.5,0-11.4-3-11.4-9.6c0-9.8,11.4-11.1,21.4-11.1c1.4,0,2.1,0.1,3.6,0.2C350.8,132.1,350.3,141.7,337.4,141.7z M176.3,117.5
	c-6.6-1.8-12.4-3.4-12.4-8.8c0-6,7-7.6,10.7-7.6c6.5,0,9.8,2.9,10.1,9l0,0.5h6.9l0-0.6c-0.3-9.5-6.4-14.7-17.2-14.7
	c-8.7,0-17.4,4.3-17.4,14c0,9.6,8.7,12,16.4,14.1c6.8,1.9,12.6,3.5,12.6,9.1c0,6.6-7.1,9-11.8,9c-7.3,0-11.5-3.7-11.5-10.2v-0.5
	h-6.8v0.5c0,10,6.6,15.7,18,15.7c8.7,0,18.9-4,18.9-15.3C192.7,122,184,119.6,176.3,117.5z M309.4,80.7c-2.4,0-4.4,2-4.4,4.4
	c0,2.4,2,4.4,4.4,4.4c2.4,0,4.4-2,4.4-4.4C313.8,82.7,311.8,80.7,309.4,80.7z M143.4,122.3c0,5.5-1.3,18.2-13.6,18.2
	c-8,0-11.5-4.8-11.5-16.2V96.4h-6.9v30.2c0,13.7,5.4,19.8,17.4,19.8c6.5,0,11-2.2,14.9-7.3c0,2,0.1,6.8,0.1,6.8h6.6V96.4h-6.9V122.3
	z M386.8,96c-6.5,0-11.1,2.4-14.9,7.5l-0.1-7.1H365V146h6.9v-26.4h0c0-6.6,1.8-17.7,13.7-17.7c10.3,0,11.2,7.3,11.2,16.2V146h6.9
	v-30.2C403.8,102.1,398.5,96,386.8,96z M245.8,96.3c-0.7-0.1-1.5-0.1-2.2-0.1c-6.4,0-11,2.2-14.4,6.8c-0.1-2-0.1-6.6-0.1-6.6h-6.8
	V146h6.9v-28c0-10.4,4-15.1,13.1-15.1c1.2,0,2.3,0.1,3.4,0.3V96.3z M493.9,122.4c0,8.2-2.3,16.2-11.1,16.2c-9,0-9.6-7.4-9.6-15.2
	V96.4h-10.8v31.4c0,11.8,5.3,18.9,16.8,18.9c6.7,0,11-2.7,14.9-8.2h0l0.2,7.5h10.5V96.4h-10.8V122.4z M537.4,95.4
	c-6.7,0-11.7,3-15.2,9l-0.2-7.9h-10.4v68.2h10.8v-25.4c3.7,5.3,7.8,7.7,14.1,7.7c14,0,20.4-13.1,20.4-26.5
	C556.9,107.3,551,95.4,537.4,95.4z M533.7,139.5c-9.1,0-11.5-9.9-11.5-18.1c0-8.7,3-18.5,12.3-18.5c9,0,11.6,9.9,11.6,18.1
	C546.2,129.8,543.3,139.5,533.7,139.5z"/>
<g>
	<linearGradient id="SVGID_2_" gradientUnits="userSpaceOnUse" x1="547.805" y1="70.7787" x2="642.7188" y2="21.3631">
		<stop  offset="0" style="stop-color:#2D2D8C"/>
		<stop  offset="7.304230e-02" style="stop-color:#3F2B82"/>
		<stop  offset="0.2205" style="stop-color:#702768"/>
		<stop  offset="0.4268" style="stop-color:#BC203E"/>
		<stop  offset="0.55" style="stop-color:#ED1C24"/>
		<stop  offset="0.612" style="stop-color:#EF2E20"/>
		<stop  offset="0.7371" style="stop-color:#F45F17"/>
		<stop  offset="0.9123" style="stop-color:#FBAB08"/>
		<stop  offset="1" style="stop-color:#FFD400"/>
	</linearGradient>
	<path class="st3" d="M610.1,39.6c-0.1-1-1.6-1.7-3.3-1.5c-1,0.1-1.8,0.5-2.4,1c1.7,0.6,3.3,1.3,4.5,2.2
		C609.8,40.8,610.2,40.2,610.1,39.6z"/>
	<linearGradient id="SVGID_3_" gradientUnits="userSpaceOnUse" x1="544.3964" y1="64.2498" x2="639.3217" y2="14.8283">
		<stop  offset="0" style="stop-color:#2D2D8C"/>
		<stop  offset="7.304230e-02" style="stop-color:#3F2B82"/>
		<stop  offset="0.2205" style="stop-color:#702768"/>
		<stop  offset="0.4268" style="stop-color:#BC203E"/>
		<stop  offset="0.55" style="stop-color:#ED1C24"/>
		<stop  offset="0.612" style="stop-color:#EF2E20"/>
		<stop  offset="0.7371" style="stop-color:#F45F17"/>
		<stop  offset="0.9123" style="stop-color:#FBAB08"/>
		<stop  offset="1" style="stop-color:#FFD400"/>
	</linearGradient>
	<path class="st4" d="M606.3,33.7c1.6-0.2,2.9-1.1,2.8-2c-0.1-0.9-1.5-1.4-3.1-1.2c-1.6,0.2-2.8,1-2.8,1.9
		C603.4,33.3,604.7,33.9,606.3,33.7z"/>
	<linearGradient id="SVGID_4_" gradientUnits="userSpaceOnUse" x1="542.866" y1="61.3081" x2="637.7895" y2="11.8876">
		<stop  offset="0" style="stop-color:#2D2D8C"/>
		<stop  offset="7.304230e-02" style="stop-color:#3F2B82"/>
		<stop  offset="0.2205" style="stop-color:#702768"/>
		<stop  offset="0.4268" style="stop-color:#BC203E"/>
		<stop  offset="0.55" style="stop-color:#ED1C24"/>
		<stop  offset="0.612" style="stop-color:#EF2E20"/>
		<stop  offset="0.7371" style="stop-color:#F45F17"/>
		<stop  offset="0.9123" style="stop-color:#FBAB08"/>
		<stop  offset="1" style="stop-color:#FFD400"/>
	</linearGradient>
	<path class="st5" d="M606,30c1.6-0.2,2.8-1,2.7-1.9c-0.1-0.8-1.4-1.3-3-1.1c-1.5,0.2-2.7,1-2.7,1.8C603.1,29.7,604.4,30.2,606,30z"
		/>
	<linearGradient id="SVGID_5_" gradientUnits="userSpaceOnUse" x1="552.9794" y1="80.7276" x2="647.899" y2="31.309">
		<stop  offset="0" style="stop-color:#2D2D8C"/>
		<stop  offset="7.304230e-02" style="stop-color:#3F2B82"/>
		<stop  offset="0.2205" style="stop-color:#702768"/>
		<stop  offset="0.4268" style="stop-color:#BC203E"/>
		<stop  offset="0.55" style="stop-color:#ED1C24"/>
		<stop  offset="0.612" style="stop-color:#EF2E20"/>
		<stop  offset="0.7371" style="stop-color:#F45F17"/>
		<stop  offset="0.9123" style="stop-color:#FBAB08"/>
		<stop  offset="1" style="stop-color:#FFD400"/>
	</linearGradient>
	<path class="st6" d="M616.1,49.9c1.6-0.2,2.8-1.2,2.6-2.2c-0.2-1-1.6-1.7-3.2-1.5c-1.6,0.2-2.8,1.2-2.6,2.2
		C613,49.4,614.4,50.1,616.1,49.9z"/>
	<linearGradient id="SVGID_6_" gradientUnits="userSpaceOnUse" x1="548.3246" y1="71.7587" x2="643.2291" y2="22.348">
		<stop  offset="0" style="stop-color:#2D2D8C"/>
		<stop  offset="7.304230e-02" style="stop-color:#3F2B82"/>
		<stop  offset="0.2205" style="stop-color:#702768"/>
		<stop  offset="0.4268" style="stop-color:#BC203E"/>
		<stop  offset="0.55" style="stop-color:#ED1C24"/>
		<stop  offset="0.612" style="stop-color:#EF2E20"/>
		<stop  offset="0.7371" style="stop-color:#F45F17"/>
		<stop  offset="0.9123" style="stop-color:#FBAB08"/>
		<stop  offset="1" style="stop-color:#FFD400"/>
	</linearGradient>
	<path class="st7" d="M620.2,33c-1.2,0.1-2,0.8-1.8,1.4c0.1,0.7,1.2,1.1,2.4,1c1.2-0.1,2-0.8,1.8-1.5
		C622.5,33.3,621.4,32.8,620.2,33z"/>
	<linearGradient id="SVGID_7_" gradientUnits="userSpaceOnUse" x1="550.9217" y1="76.759" x2="645.8324" y2="27.3451">
		<stop  offset="0" style="stop-color:#2D2D8C"/>
		<stop  offset="7.304230e-02" style="stop-color:#3F2B82"/>
		<stop  offset="0.2205" style="stop-color:#702768"/>
		<stop  offset="0.4268" style="stop-color:#BC203E"/>
		<stop  offset="0.55" style="stop-color:#ED1C24"/>
		<stop  offset="0.612" style="stop-color:#EF2E20"/>
		<stop  offset="0.7371" style="stop-color:#F45F17"/>
		<stop  offset="0.9123" style="stop-color:#FBAB08"/>
		<stop  offset="1" style="stop-color:#FFD400"/>
	</linearGradient>
	<path class="st8" d="M615.2,45.2c1.6-0.2,2.7-1.1,2.5-2.1c-0.2-0.9-1.6-1.6-3.1-1.4c-1.5,0.2-2.6,1.1-2.5,2
		C612.2,44.7,613.6,45.4,615.2,45.2z"/>
	<linearGradient id="SVGID_8_" gradientUnits="userSpaceOnUse" x1="550.1586" y1="75.3064" x2="645.0773" y2="25.8884">
		<stop  offset="0" style="stop-color:#2D2D8C"/>
		<stop  offset="7.304230e-02" style="stop-color:#3F2B82"/>
		<stop  offset="0.2205" style="stop-color:#702768"/>
		<stop  offset="0.4268" style="stop-color:#BC203E"/>
		<stop  offset="0.55" style="stop-color:#ED1C24"/>
		<stop  offset="0.612" style="stop-color:#EF2E20"/>
		<stop  offset="0.7371" style="stop-color:#F45F17"/>
		<stop  offset="0.9123" style="stop-color:#FBAB08"/>
		<stop  offset="1" style="stop-color:#FFD400"/>
	</linearGradient>
	<path class="st9" d="M621.1,36.9c-1.2,0.1-2.1,0.8-1.9,1.5c0.1,0.7,1.2,1.2,2.5,1c1.3-0.1,2.1-0.8,1.9-1.6
		C623.4,37.2,622.3,36.8,621.1,36.9z"/>
	<linearGradient id="SVGID_9_" gradientUnits="userSpaceOnUse" x1="546.0436" y1="67.3952" x2="640.9575" y2="17.9797">
		<stop  offset="0" style="stop-color:#2D2D8C"/>
		<stop  offset="7.304230e-02" style="stop-color:#3F2B82"/>
		<stop  offset="0.2205" style="stop-color:#702768"/>
		<stop  offset="0.4268" style="stop-color:#BC203E"/>
		<stop  offset="0.55" style="stop-color:#ED1C24"/>
		<stop  offset="0.612" style="stop-color:#EF2E20"/>
		<stop  offset="0.7371" style="stop-color:#F45F17"/>
		<stop  offset="0.9123" style="stop-color:#FBAB08"/>
		<stop  offset="1" style="stop-color:#FFD400"/>
	</linearGradient>
	<path class="st10" d="M606.4,34.2c-1.7,0.2-3,1.1-2.9,2.1c0.1,1,1.5,1.6,3.2,1.4c1.7-0.2,3-1.2,2.9-2.1
		C609.5,34.5,608,33.9,606.4,34.2z"/>
	<linearGradient id="SVGID_10_" gradientUnits="userSpaceOnUse" x1="553.3392" y1="81.4093" x2="648.2542" y2="31.9931">
		<stop  offset="0" style="stop-color:#2D2D8C"/>
		<stop  offset="7.304230e-02" style="stop-color:#3F2B82"/>
		<stop  offset="0.2205" style="stop-color:#702768"/>
		<stop  offset="0.4268" style="stop-color:#BC203E"/>
		<stop  offset="0.55" style="stop-color:#ED1C24"/>
		<stop  offset="0.612" style="stop-color:#EF2E20"/>
		<stop  offset="0.7371" style="stop-color:#F45F17"/>
		<stop  offset="0.9123" style="stop-color:#FBAB08"/>
		<stop  offset="1" style="stop-color:#FFD400"/>
	</linearGradient>
	<path class="st11" d="M629.3,40.6c-0.9,0.1-1.5,0.6-1.4,1.2c0.2,0.6,1.1,0.9,2,0.8c0.9-0.1,1.6-0.7,1.4-1.2
		C631.2,40.9,630.3,40.5,629.3,40.6z"/>
	<linearGradient id="SVGID_11_" gradientUnits="userSpaceOnUse" x1="556.4713" y1="87.4286" x2="651.3885" y2="38.0113">
		<stop  offset="0" style="stop-color:#2D2D8C"/>
		<stop  offset="7.304230e-02" style="stop-color:#3F2B82"/>
		<stop  offset="0.2205" style="stop-color:#702768"/>
		<stop  offset="0.4268" style="stop-color:#BC203E"/>
		<stop  offset="0.55" style="stop-color:#ED1C24"/>
		<stop  offset="0.612" style="stop-color:#EF2E20"/>
		<stop  offset="0.7371" style="stop-color:#F45F17"/>
		<stop  offset="0.9123" style="stop-color:#FBAB08"/>
		<stop  offset="1" style="stop-color:#FFD400"/>
	</linearGradient>
	<path class="st12" d="M605.7,72.3c-0.4-1.6-2.3-2.6-4.4-2.4c2.4-0.4,4.1-2,4-3.8c-0.1-1.7-2-2.8-4.3-2.6c2.3-0.3,3.9-1.9,3.8-3.5
		c-0.1-1.5-1.8-2.5-3.8-2.4c2-0.4,3.5-1.8,3.4-3.2c0-0.7-0.5-1.3-1.2-1.7c-0.6,0.4-1.2,0.8-1.8,1.2l-4.4,2.8c0.7,0.6,1.8,1,3.1,0.9
		c-1.3,0.3-2.4,0.9-3.1,1.7c-0.3-0.7-1-1.2-1.8-1.5l-35.5,23c-9.3,6.1-3.7,9,0.6,8.3c3.4-0.5,11.2-2.8,20.7-6.3
		C588.6,80,597.3,76.4,605.7,72.3z M596.7,61.9c0.6,1,2.1,1.7,3.8,1.5c-1.5,0.2-2.7,1-3.4,1.9c-0.4-0.9-1.3-1.5-2.5-1.8
		C595.5,63.2,596.2,62.6,596.7,61.9z M596.8,68.2c0.6,1.1,2.2,1.8,4,1.7c-1.6,0.2-2.9,1.1-3.6,2.1c-0.4-0.9-1.4-1.6-2.6-1.9
		C595.5,69.6,596.3,69,596.8,68.2z M588.6,63.2c0.4,0.4,1.1,0.8,1.8,0.9c-0.8,0.4-1.4,0.8-1.9,1.4c-0.4-0.4-0.8-0.8-1.4-1
		C587.7,64.2,588.2,63.7,588.6,63.2z M588.3,69.6c0.5,0.5,1.1,0.8,1.9,1c-0.8,0.4-1.5,0.9-2,1.5c-0.4-0.5-0.9-0.9-1.5-1.1
		C587.3,70.6,587.9,70.1,588.3,69.6z M588,76.6c0.5,0.5,1.2,0.9,2,1.2c-0.8,0.4-1.6,1-2.1,1.7c-0.4-0.5-0.9-0.9-1.5-1.2
		C587,77.7,587.5,77.2,588,76.6z M578.5,79.7c-0.2-0.2-0.4-0.4-0.6-0.5c0.3-0.2,0.5-0.4,0.7-0.7c0.2,0.2,0.5,0.4,0.8,0.5
		C579.1,79.2,578.8,79.5,578.5,79.7z M579.3,72.5c-0.2-0.2-0.4-0.3-0.6-0.5c0.2-0.2,0.5-0.4,0.7-0.6c0.2,0.2,0.5,0.3,0.8,0.5
		C579.9,72.1,579.6,72.3,579.3,72.5z"/>
	<linearGradient id="SVGID_12_" gradientUnits="userSpaceOnUse" x1="556.7526" y1="87.9027" x2="651.6378" y2="38.502">
		<stop  offset="0" style="stop-color:#2D2D8C"/>
		<stop  offset="7.304230e-02" style="stop-color:#3F2B82"/>
		<stop  offset="0.2205" style="stop-color:#702768"/>
		<stop  offset="0.4268" style="stop-color:#BC203E"/>
		<stop  offset="0.55" style="stop-color:#ED1C24"/>
		<stop  offset="0.612" style="stop-color:#EF2E20"/>
		<stop  offset="0.7371" style="stop-color:#F45F17"/>
		<stop  offset="0.9123" style="stop-color:#FBAB08"/>
		<stop  offset="1" style="stop-color:#FFD400"/>
	</linearGradient>
	<path class="st13" d="M637.1,45.6c0.1,0.4,0.8,0.7,1.5,0.6c0.7-0.1,1.1-0.5,1-0.9c-0.2-0.4-0.8-0.7-1.5-0.6
		C637.4,44.7,637,45.2,637.1,45.6z"/>
	<linearGradient id="SVGID_13_" gradientUnits="userSpaceOnUse" x1="546.5952" y1="68.4659" x2="641.516" y2="19.0467">
		<stop  offset="0" style="stop-color:#2D2D8C"/>
		<stop  offset="7.304230e-02" style="stop-color:#3F2B82"/>
		<stop  offset="0.2205" style="stop-color:#702768"/>
		<stop  offset="0.4268" style="stop-color:#BC203E"/>
		<stop  offset="0.55" style="stop-color:#ED1C24"/>
		<stop  offset="0.612" style="stop-color:#EF2E20"/>
		<stop  offset="0.7371" style="stop-color:#F45F17"/>
		<stop  offset="0.9123" style="stop-color:#FBAB08"/>
		<stop  offset="1" style="stop-color:#FFD400"/>
	</linearGradient>
	<path class="st14" d="M619.4,29.3c-1.1,0.1-1.9,0.7-1.8,1.3c0.2,0.6,1.2,1,2.3,0.9c1.2-0.1,2-0.8,1.8-1.4
		C621.5,29.6,620.5,29.2,619.4,29.3z"/>
	<linearGradient id="SVGID_14_" gradientUnits="userSpaceOnUse" x1="555.5229" y1="85.6243" x2="650.4489" y2="36.2025">
		<stop  offset="0" style="stop-color:#2D2D8C"/>
		<stop  offset="7.304230e-02" style="stop-color:#3F2B82"/>
		<stop  offset="0.2205" style="stop-color:#702768"/>
		<stop  offset="0.4268" style="stop-color:#BC203E"/>
		<stop  offset="0.55" style="stop-color:#ED1C24"/>
		<stop  offset="0.612" style="stop-color:#EF2E20"/>
		<stop  offset="0.7371" style="stop-color:#F45F17"/>
		<stop  offset="0.9123" style="stop-color:#FBAB08"/>
		<stop  offset="1" style="stop-color:#FFD400"/>
	</linearGradient>
	<path class="st15" d="M630.7,45.2c-1,0.1-1.6,0.7-1.5,1.3c0.2,0.6,1.1,1,2.1,0.9c1-0.1,1.7-0.7,1.5-1.3
		C632.6,45.5,631.7,45.1,630.7,45.2z"/>
	<linearGradient id="SVGID_15_" gradientUnits="userSpaceOnUse" x1="550.5132" y1="75.9409" x2="645.4092" y2="26.5347">
		<stop  offset="0" style="stop-color:#2D2D8C"/>
		<stop  offset="7.304230e-02" style="stop-color:#3F2B82"/>
		<stop  offset="0.2205" style="stop-color:#702768"/>
		<stop  offset="0.4268" style="stop-color:#BC203E"/>
		<stop  offset="0.55" style="stop-color:#ED1C24"/>
		<stop  offset="0.612" style="stop-color:#EF2E20"/>
		<stop  offset="0.7371" style="stop-color:#F45F17"/>
		<stop  offset="0.9123" style="stop-color:#FBAB08"/>
		<stop  offset="1" style="stop-color:#FFD400"/>
	</linearGradient>
	<path class="st16" d="M633.9,33.2c0.6-0.1,1-0.4,0.9-0.7c-0.1-0.3-0.7-0.5-1.3-0.5c-0.6,0.1-1,0.4-0.9,0.7
		C632.7,33.1,633.3,33.3,633.9,33.2z"/>
	<linearGradient id="SVGID_16_" gradientUnits="userSpaceOnUse" x1="552.4072" y1="79.6489" x2="647.3364" y2="30.2254">
		<stop  offset="0" style="stop-color:#2D2D8C"/>
		<stop  offset="7.304230e-02" style="stop-color:#3F2B82"/>
		<stop  offset="0.2205" style="stop-color:#702768"/>
		<stop  offset="0.4268" style="stop-color:#BC203E"/>
		<stop  offset="0.55" style="stop-color:#ED1C24"/>
		<stop  offset="0.612" style="stop-color:#EF2E20"/>
		<stop  offset="0.7371" style="stop-color:#F45F17"/>
		<stop  offset="0.9123" style="stop-color:#FBAB08"/>
		<stop  offset="1" style="stop-color:#FFD400"/>
	</linearGradient>
	<path class="st17" d="M635.4,37.2c0.6-0.1,1-0.4,0.9-0.8c-0.1-0.4-0.8-0.6-1.4-0.5c-0.6,0.1-1,0.4-0.9,0.8
		C634.1,37.1,634.8,37.3,635.4,37.2z"/>
	<linearGradient id="SVGID_17_" gradientUnits="userSpaceOnUse" x1="557.9117" y1="90.1802" x2="652.8207" y2="40.7672">
		<stop  offset="0" style="stop-color:#2D2D8C"/>
		<stop  offset="7.304230e-02" style="stop-color:#3F2B82"/>
		<stop  offset="0.2205" style="stop-color:#702768"/>
		<stop  offset="0.4268" style="stop-color:#BC203E"/>
		<stop  offset="0.55" style="stop-color:#ED1C24"/>
		<stop  offset="0.612" style="stop-color:#EF2E20"/>
		<stop  offset="0.7371" style="stop-color:#F45F17"/>
		<stop  offset="0.9123" style="stop-color:#FBAB08"/>
		<stop  offset="1" style="stop-color:#FFD400"/>
	</linearGradient>
	<path class="st18" d="M632.9,52.5c1.1-0.1,1.7-0.8,1.5-1.4c-0.2-0.7-1.2-1.1-2.2-1c-1,0.1-1.7,0.8-1.5,1.4
		C630.9,52.2,631.9,52.7,632.9,52.5z"/>
	<linearGradient id="SVGID_18_" gradientUnits="userSpaceOnUse" x1="559.9662" y1="94.1437" x2="654.8848" y2="44.7257">
		<stop  offset="0" style="stop-color:#2D2D8C"/>
		<stop  offset="7.304230e-02" style="stop-color:#3F2B82"/>
		<stop  offset="0.2205" style="stop-color:#702768"/>
		<stop  offset="0.4268" style="stop-color:#BC203E"/>
		<stop  offset="0.55" style="stop-color:#ED1C24"/>
		<stop  offset="0.612" style="stop-color:#EF2E20"/>
		<stop  offset="0.7371" style="stop-color:#F45F17"/>
		<stop  offset="0.9123" style="stop-color:#FBAB08"/>
		<stop  offset="1" style="stop-color:#FFD400"/>
	</linearGradient>
	<path class="st19" d="M618.1,62.2c-1.8,0.2-3.1,1.4-2.9,2.8c0.1,0.7,0.6,1.3,1.3,1.7c1.8-1,3.5-2,5.1-3
		C621.1,62.7,619.7,62.1,618.1,62.2z"/>
	<linearGradient id="SVGID_19_" gradientUnits="userSpaceOnUse" x1="559.1416" y1="92.5558" x2="654.0573" y2="43.1393">
		<stop  offset="0" style="stop-color:#2D2D8C"/>
		<stop  offset="7.304230e-02" style="stop-color:#3F2B82"/>
		<stop  offset="0.2205" style="stop-color:#702768"/>
		<stop  offset="0.4268" style="stop-color:#BC203E"/>
		<stop  offset="0.55" style="stop-color:#ED1C24"/>
		<stop  offset="0.612" style="stop-color:#EF2E20"/>
		<stop  offset="0.7371" style="stop-color:#F45F17"/>
		<stop  offset="0.9123" style="stop-color:#FBAB08"/>
		<stop  offset="1" style="stop-color:#FFD400"/>
	</linearGradient>
	<path class="st20" d="M626.4,59.5c1.5-0.2,2.4-1.1,2.2-2.1c-0.3-1-1.6-1.6-3-1.4c-1.4,0.2-2.4,1.1-2.2,2.1
		C623.6,59,624.9,59.7,626.4,59.5z"/>
	<linearGradient id="SVGID_20_" gradientUnits="userSpaceOnUse" x1="556.6107" y1="87.7027" x2="651.5311" y2="38.2838">
		<stop  offset="0" style="stop-color:#2D2D8C"/>
		<stop  offset="7.304230e-02" style="stop-color:#3F2B82"/>
		<stop  offset="0.2205" style="stop-color:#702768"/>
		<stop  offset="0.4268" style="stop-color:#BC203E"/>
		<stop  offset="0.55" style="stop-color:#ED1C24"/>
		<stop  offset="0.612" style="stop-color:#EF2E20"/>
		<stop  offset="0.7371" style="stop-color:#F45F17"/>
		<stop  offset="0.9123" style="stop-color:#FBAB08"/>
		<stop  offset="1" style="stop-color:#FFD400"/>
	</linearGradient>
	<path class="st21" d="M625.1,53.9c1.4-0.2,2.3-1,2.1-2c-0.2-0.9-1.5-1.5-2.8-1.3c-1.4,0.2-2.3,1-2.1,1.9
		C622.4,53.4,623.7,54.1,625.1,53.9z"/>
	<linearGradient id="SVGID_21_" gradientUnits="userSpaceOnUse" x1="549.4084" y1="73.8989" x2="644.3437" y2="24.4722">
		<stop  offset="0" style="stop-color:#2D2D8C"/>
		<stop  offset="7.304230e-02" style="stop-color:#3F2B82"/>
		<stop  offset="0.2205" style="stop-color:#702768"/>
		<stop  offset="0.4268" style="stop-color:#BC203E"/>
		<stop  offset="0.55" style="stop-color:#ED1C24"/>
		<stop  offset="0.612" style="stop-color:#EF2E20"/>
		<stop  offset="0.7371" style="stop-color:#F45F17"/>
		<stop  offset="0.9123" style="stop-color:#FBAB08"/>
		<stop  offset="1" style="stop-color:#FFD400"/>
	</linearGradient>
	<path class="st22" d="M625.6,33.6c0.2,0.5,1,0.8,1.8,0.7c0.9-0.1,1.5-0.6,1.3-1.1c-0.2-0.5-1-0.8-1.9-0.7
		C626.1,32.6,625.5,33.1,625.6,33.6z"/>
	<linearGradient id="SVGID_22_" gradientUnits="userSpaceOnUse" x1="554.2941" y1="83.2364" x2="649.2053" y2="33.8222">
		<stop  offset="0" style="stop-color:#2D2D8C"/>
		<stop  offset="7.304230e-02" style="stop-color:#3F2B82"/>
		<stop  offset="0.2205" style="stop-color:#702768"/>
		<stop  offset="0.4268" style="stop-color:#BC203E"/>
		<stop  offset="0.55" style="stop-color:#ED1C24"/>
		<stop  offset="0.612" style="stop-color:#EF2E20"/>
		<stop  offset="0.7371" style="stop-color:#F45F17"/>
		<stop  offset="0.9123" style="stop-color:#FBAB08"/>
		<stop  offset="1" style="stop-color:#FFD400"/>
	</linearGradient>
	<path class="st23" d="M623.9,48.7c1.3-0.2,2.2-1,2-1.8c-0.2-0.8-1.4-1.4-2.7-1.2c-1.3,0.2-2.2,1-2,1.8
		C621.3,48.3,622.6,48.9,623.9,48.7z"/>
	<linearGradient id="SVGID_23_" gradientUnits="userSpaceOnUse" x1="547.6571" y1="70.5215" x2="642.585" y2="21.0986">
		<stop  offset="0" style="stop-color:#2D2D8C"/>
		<stop  offset="7.304230e-02" style="stop-color:#3F2B82"/>
		<stop  offset="0.2205" style="stop-color:#702768"/>
		<stop  offset="0.4268" style="stop-color:#BC203E"/>
		<stop  offset="0.55" style="stop-color:#ED1C24"/>
		<stop  offset="0.612" style="stop-color:#EF2E20"/>
		<stop  offset="0.7371" style="stop-color:#F45F17"/>
		<stop  offset="0.9123" style="stop-color:#FBAB08"/>
		<stop  offset="1" style="stop-color:#FFD400"/>
	</linearGradient>
	<path class="st24" d="M625.8,28.9c-0.8,0.1-1.4,0.5-1.3,1c0.1,0.5,0.9,0.8,1.8,0.6c0.9-0.1,1.4-0.5,1.3-1
		C627.5,29.1,626.7,28.8,625.8,28.9z"/>
	<linearGradient id="SVGID_24_" gradientUnits="userSpaceOnUse" x1="551.3066" y1="77.5062" x2="646.222" y2="28.0898">
		<stop  offset="0" style="stop-color:#2D2D8C"/>
		<stop  offset="7.304230e-02" style="stop-color:#3F2B82"/>
		<stop  offset="0.2205" style="stop-color:#702768"/>
		<stop  offset="0.4268" style="stop-color:#BC203E"/>
		<stop  offset="0.55" style="stop-color:#ED1C24"/>
		<stop  offset="0.612" style="stop-color:#EF2E20"/>
		<stop  offset="0.7371" style="stop-color:#F45F17"/>
		<stop  offset="0.9123" style="stop-color:#FBAB08"/>
		<stop  offset="1" style="stop-color:#FFD400"/>
	</linearGradient>
	<path class="st25" d="M628.1,36.4c-0.9,0.1-1.5,0.6-1.3,1.1c0.2,0.5,1,0.9,1.9,0.8c0.9-0.1,1.5-0.6,1.4-1.1
		C629.9,36.7,629,36.3,628.1,36.4z"/>
	<linearGradient id="SVGID_25_" gradientUnits="userSpaceOnUse" x1="560.4675" y1="95.0956" x2="655.3781" y2="45.6818">
		<stop  offset="0" style="stop-color:#2D2D8C"/>
		<stop  offset="7.304230e-02" style="stop-color:#3F2B82"/>
		<stop  offset="0.2205" style="stop-color:#702768"/>
		<stop  offset="0.4268" style="stop-color:#BC203E"/>
		<stop  offset="0.55" style="stop-color:#ED1C24"/>
		<stop  offset="0.612" style="stop-color:#EF2E20"/>
		<stop  offset="0.7371" style="stop-color:#F45F17"/>
		<stop  offset="0.9123" style="stop-color:#FBAB08"/>
		<stop  offset="1" style="stop-color:#FFD400"/>
	</linearGradient>
	<path class="st26" d="M612.1,69c-0.6-0.2-1.3-0.3-2.1-0.2c-2,0.3-3.5,1.6-3.6,3.1c1.8-0.9,3.6-1.8,5.3-2.7
		C611.9,69.2,612,69.1,612.1,69z"/>
	<linearGradient id="SVGID_26_" gradientUnits="userSpaceOnUse" x1="554.4941" y1="83.6202" x2="649.4056" y2="34.2059">
		<stop  offset="0" style="stop-color:#2D2D8C"/>
		<stop  offset="7.304230e-02" style="stop-color:#3F2B82"/>
		<stop  offset="0.2205" style="stop-color:#702768"/>
		<stop  offset="0.4268" style="stop-color:#BC203E"/>
		<stop  offset="0.55" style="stop-color:#ED1C24"/>
		<stop  offset="0.612" style="stop-color:#EF2E20"/>
		<stop  offset="0.7371" style="stop-color:#F45F17"/>
		<stop  offset="0.9123" style="stop-color:#FBAB08"/>
		<stop  offset="1" style="stop-color:#FFD400"/>
	</linearGradient>
	<path class="st27" d="M637.8,40.7c-0.1-0.4-0.8-0.6-1.4-0.5c-0.7,0.1-1.1,0.5-1,0.8c0.1,0.4,0.8,0.6,1.5,0.6
		C637.6,41.5,638,41.1,637.8,40.7z"/>
	<linearGradient id="SVGID_27_" gradientUnits="userSpaceOnUse" x1="539.7957" y1="55.4001" x2="634.7131" y2="5.9827">
		<stop  offset="0" style="stop-color:#2D2D8C"/>
		<stop  offset="7.304230e-02" style="stop-color:#3F2B82"/>
		<stop  offset="0.2205" style="stop-color:#702768"/>
		<stop  offset="0.4268" style="stop-color:#BC203E"/>
		<stop  offset="0.55" style="stop-color:#ED1C24"/>
		<stop  offset="0.612" style="stop-color:#EF2E20"/>
		<stop  offset="0.7371" style="stop-color:#F45F17"/>
		<stop  offset="0.9123" style="stop-color:#FBAB08"/>
		<stop  offset="1" style="stop-color:#FFD400"/>
	</linearGradient>
	<path class="st28" d="M589.8,23c-6.1-0.1-10.6,0.1-15,0.6c-6.3,0.7-7.8,4-4.6,5l29.6,8.9c0.5,0.2,1.1,0.3,1.6,0.5
		c1.1-0.5,1.8-1.2,1.7-2c-0.1-0.9-1.2-1.5-2.7-1.6c1.5-0.4,2.5-1.2,2.4-2.1c0-0.9-1.2-1.5-2.7-1.5c1.5-0.4,2.5-1.3,2.4-2.1
		c0-0.8-1.1-1.3-2.5-1.3c1.4-0.4,2.4-1.2,2.3-2c0-0.7-1.1-1.3-2.4-1.3c0.6-0.1,1.2-0.4,1.6-0.7C597.4,23.2,593.4,23,589.8,23z
		 M583.8,29.6c-0.1-0.1-0.3-0.2-0.4-0.2c0.2-0.1,0.3-0.2,0.5-0.3c0.2,0.1,0.3,0.1,0.5,0.2C584.2,29.3,584,29.5,583.8,29.6z
		 M584.1,26.3c-0.1-0.1-0.3-0.1-0.4-0.2c0.2-0.1,0.3-0.2,0.4-0.3c0.2,0.1,0.3,0.1,0.5,0.2C584.5,26,584.3,26.1,584.1,26.3z
		 M589.9,32.7c-0.3-0.2-0.6-0.4-1.1-0.6c0.5-0.2,0.8-0.5,1.1-0.8c0.3,0.3,0.8,0.4,1.4,0.5C590.8,32.1,590.2,32.4,589.9,32.7z
		 M590,29.2c-0.3-0.2-0.6-0.4-1-0.5c0.5-0.2,0.8-0.5,1.1-0.8c0.3,0.2,0.8,0.4,1.3,0.5C590.9,28.6,590.4,28.9,590,29.2z M590.2,25.9
		c-0.3-0.2-0.6-0.4-1-0.5c0.5-0.2,0.9-0.5,1.2-0.9c0.4,0.2,0.9,0.4,1.6,0.5C591.2,25.2,590.6,25.5,590.2,25.9z M596.3,23.6
		c0.4,0.4,1.2,0.7,2.2,0.7c-1,0.2-1.9,0.7-2.2,1.3c-0.3-0.5-1-0.8-2-0.9C595.2,24.5,595.9,24.1,596.3,23.6z M598.7,27.6
		c-1.1,0.3-1.9,0.8-2.3,1.3c-0.3-0.5-0.9-0.8-1.8-0.9c0.8-0.3,1.5-0.8,1.8-1.3C596.7,27.2,597.6,27.6,598.7,27.6z M596.4,30.1
		c0.4,0.5,1.3,0.9,2.4,0.9c-1.1,0.3-2,0.8-2.4,1.5c-0.3-0.5-1-0.8-1.9-1C595.4,31.2,596.1,30.6,596.4,30.1z M596.5,36.1
		c-0.2-0.5-0.8-0.9-1.5-1.1c0.7-0.3,1.2-0.8,1.4-1.3c0.4,0.5,1.3,0.9,2.4,0.9C597.7,34.9,596.9,35.5,596.5,36.1z"/>
	<linearGradient id="SVGID_28_" gradientUnits="userSpaceOnUse" x1="541.4363" y1="58.5564" x2="636.3564" y2="9.1376">
		<stop  offset="0" style="stop-color:#2D2D8C"/>
		<stop  offset="7.304230e-02" style="stop-color:#3F2B82"/>
		<stop  offset="0.2205" style="stop-color:#702768"/>
		<stop  offset="0.4268" style="stop-color:#BC203E"/>
		<stop  offset="0.55" style="stop-color:#ED1C24"/>
		<stop  offset="0.612" style="stop-color:#EF2E20"/>
		<stop  offset="0.7371" style="stop-color:#F45F17"/>
		<stop  offset="0.9123" style="stop-color:#FBAB08"/>
		<stop  offset="1" style="stop-color:#FFD400"/>
	</linearGradient>
	<path class="st29" d="M602.8,25.5c0,0.8,1.3,1.3,2.9,1.1c1.5-0.2,2.7-1,2.6-1.8c0-0.4-0.3-0.6-0.8-0.8c-0.7-0.1-1.4-0.2-2.2-0.2
		C603.8,24,602.7,24.7,602.8,25.5z"/>
	<linearGradient id="SVGID_29_" gradientUnits="userSpaceOnUse" x1="542.5009" y1="60.6084" x2="637.4249" y2="11.1876">
		<stop  offset="0" style="stop-color:#2D2D8C"/>
		<stop  offset="7.304230e-02" style="stop-color:#3F2B82"/>
		<stop  offset="0.2205" style="stop-color:#702768"/>
		<stop  offset="0.4268" style="stop-color:#BC203E"/>
		<stop  offset="0.55" style="stop-color:#ED1C24"/>
		<stop  offset="0.612" style="stop-color:#EF2E20"/>
		<stop  offset="0.7371" style="stop-color:#F45F17"/>
		<stop  offset="0.9123" style="stop-color:#FBAB08"/>
		<stop  offset="1" style="stop-color:#FFD400"/>
	</linearGradient>
	<path class="st30" d="M609.4,24.3c-0.1,0.1-0.1,0.3-0.1,0.5c0.1,0.7,1.3,1.1,2.6,1c0.8-0.1,1.5-0.4,1.9-0.8
		c-1.2-0.2-2.4-0.4-3.6-0.5C609.9,24.3,609.7,24.3,609.4,24.3z"/>
	<linearGradient id="SVGID_30_" gradientUnits="userSpaceOnUse" x1="558.7932" y1="91.886" x2="653.7081" y2="42.4699">
		<stop  offset="0" style="stop-color:#2D2D8C"/>
		<stop  offset="7.304230e-02" style="stop-color:#3F2B82"/>
		<stop  offset="0.2205" style="stop-color:#702768"/>
		<stop  offset="0.4268" style="stop-color:#BC203E"/>
		<stop  offset="0.55" style="stop-color:#ED1C24"/>
		<stop  offset="0.612" style="stop-color:#EF2E20"/>
		<stop  offset="0.7371" style="stop-color:#F45F17"/>
		<stop  offset="0.9123" style="stop-color:#FBAB08"/>
		<stop  offset="1" style="stop-color:#FFD400"/>
	</linearGradient>
	<path class="st31" d="M610.1,68.1c2.2-0.3,3.8-1.8,3.6-3.3c-0.2-1.5-2.1-2.5-4.2-2.3c-2.1,0.3-3.7,1.7-3.6,3.2
		C606.1,67.3,608,68.4,610.1,68.1z"/>
	<linearGradient id="SVGID_31_" gradientUnits="userSpaceOnUse" x1="543.9248" y1="63.3252" x2="638.8383" y2="13.9098">
		<stop  offset="0" style="stop-color:#2D2D8C"/>
		<stop  offset="7.304230e-02" style="stop-color:#3F2B82"/>
		<stop  offset="0.2205" style="stop-color:#702768"/>
		<stop  offset="0.4268" style="stop-color:#BC203E"/>
		<stop  offset="0.55" style="stop-color:#ED1C24"/>
		<stop  offset="0.612" style="stop-color:#EF2E20"/>
		<stop  offset="0.7371" style="stop-color:#F45F17"/>
		<stop  offset="0.9123" style="stop-color:#FBAB08"/>
		<stop  offset="1" style="stop-color:#FFD400"/>
	</linearGradient>
	<path class="st32" d="M612,26.5c-1.3,0.1-2.3,0.9-2.2,1.6c0.1,0.7,1.3,1.2,2.7,1c1.4-0.2,2.4-0.9,2.2-1.6
		C614.5,26.7,613.3,26.3,612,26.5z"/>
	<linearGradient id="SVGID_32_" gradientUnits="userSpaceOnUse" x1="552.1429" y1="79.1202" x2="647.0626" y2="29.7016">
		<stop  offset="0" style="stop-color:#2D2D8C"/>
		<stop  offset="7.304230e-02" style="stop-color:#3F2B82"/>
		<stop  offset="0.2205" style="stop-color:#702768"/>
		<stop  offset="0.4268" style="stop-color:#BC203E"/>
		<stop  offset="0.55" style="stop-color:#ED1C24"/>
		<stop  offset="0.612" style="stop-color:#EF2E20"/>
		<stop  offset="0.7371" style="stop-color:#F45F17"/>
		<stop  offset="0.9123" style="stop-color:#FBAB08"/>
		<stop  offset="1" style="stop-color:#FFD400"/>
	</linearGradient>
	<path class="st33" d="M622.7,43.9c1.3-0.1,2.2-0.9,2-1.7c-0.2-0.8-1.3-1.2-2.6-1.1c-1.2,0.2-2.1,0.9-2,1.7
		C620.3,43.6,621.5,44.1,622.7,43.9z"/>
	<linearGradient id="SVGID_33_" gradientUnits="userSpaceOnUse" x1="547.1718" y1="69.5658" x2="642.0883" y2="20.1489">
		<stop  offset="0" style="stop-color:#2D2D8C"/>
		<stop  offset="7.304230e-02" style="stop-color:#3F2B82"/>
		<stop  offset="0.2205" style="stop-color:#702768"/>
		<stop  offset="0.4268" style="stop-color:#BC203E"/>
		<stop  offset="0.55" style="stop-color:#ED1C24"/>
		<stop  offset="0.612" style="stop-color:#EF2E20"/>
		<stop  offset="0.7371" style="stop-color:#F45F17"/>
		<stop  offset="0.9123" style="stop-color:#FBAB08"/>
		<stop  offset="1" style="stop-color:#FFD400"/>
	</linearGradient>
	<path class="st34" d="M613.2,33.6c-1.4,0.2-2.5,1-2.4,1.8c0.2,0.8,1.4,1.4,2.9,1.2c1.5-0.2,2.5-1,2.3-1.8
		C615.9,33.9,614.6,33.4,613.2,33.6z"/>
	<linearGradient id="SVGID_34_" gradientUnits="userSpaceOnUse" x1="548.9689" y1="73.031" x2="643.8932" y2="23.61">
		<stop  offset="0" style="stop-color:#2D2D8C"/>
		<stop  offset="7.304230e-02" style="stop-color:#3F2B82"/>
		<stop  offset="0.2205" style="stop-color:#702768"/>
		<stop  offset="0.4268" style="stop-color:#BC203E"/>
		<stop  offset="0.55" style="stop-color:#ED1C24"/>
		<stop  offset="0.612" style="stop-color:#EF2E20"/>
		<stop  offset="0.7371" style="stop-color:#F45F17"/>
		<stop  offset="0.9123" style="stop-color:#FBAB08"/>
		<stop  offset="1" style="stop-color:#FFD400"/>
	</linearGradient>
	<path class="st35" d="M613.9,37.5c-1.5,0.2-2.6,1-2.4,1.9c0.1,0.9,1.4,1.5,3,1.3c1.5-0.2,2.6-1,2.4-1.9
		C616.7,37.9,615.3,37.3,613.9,37.5z"/>
	<linearGradient id="SVGID_35_" gradientUnits="userSpaceOnUse" x1="551.9872" y1="78.8076" x2="646.8989" y2="29.3932">
		<stop  offset="0" style="stop-color:#2D2D8C"/>
		<stop  offset="7.304230e-02" style="stop-color:#3F2B82"/>
		<stop  offset="0.2205" style="stop-color:#702768"/>
		<stop  offset="0.4268" style="stop-color:#BC203E"/>
		<stop  offset="0.55" style="stop-color:#ED1C24"/>
		<stop  offset="0.612" style="stop-color:#EF2E20"/>
		<stop  offset="0.7371" style="stop-color:#F45F17"/>
		<stop  offset="0.9123" style="stop-color:#FBAB08"/>
		<stop  offset="1" style="stop-color:#FFD400"/>
	</linearGradient>
	<path class="st36" d="M608.3,50.9c1.9-0.2,3.3-1.4,3.2-2.6c-0.1-0.7-0.7-1.2-1.5-1.5c-0.9,1.3-2.4,2.6-4,3.8
		C606.6,50.9,607.4,51.1,608.3,50.9z"/>
	<linearGradient id="SVGID_36_" gradientUnits="userSpaceOnUse" x1="545.4875" y1="66.3382" x2="640.4082" y2="16.9191">
		<stop  offset="0" style="stop-color:#2D2D8C"/>
		<stop  offset="7.304230e-02" style="stop-color:#3F2B82"/>
		<stop  offset="0.2205" style="stop-color:#702768"/>
		<stop  offset="0.4268" style="stop-color:#BC203E"/>
		<stop  offset="0.55" style="stop-color:#ED1C24"/>
		<stop  offset="0.612" style="stop-color:#EF2E20"/>
		<stop  offset="0.7371" style="stop-color:#F45F17"/>
		<stop  offset="0.9123" style="stop-color:#FBAB08"/>
		<stop  offset="1" style="stop-color:#FFD400"/>
	</linearGradient>
	<path class="st37" d="M612.6,29.9c-1.4,0.2-2.4,0.9-2.3,1.7c0.1,0.8,1.3,1.3,2.8,1.1c1.4-0.2,2.5-0.9,2.3-1.7
		C615.2,30.2,613.9,29.7,612.6,29.9z"/>
	<linearGradient id="SVGID_37_" gradientUnits="userSpaceOnUse" x1="553.8221" y1="82.3356" x2="648.7361" y2="32.92">
		<stop  offset="0" style="stop-color:#2D2D8C"/>
		<stop  offset="7.304230e-02" style="stop-color:#3F2B82"/>
		<stop  offset="0.2205" style="stop-color:#702768"/>
		<stop  offset="0.4268" style="stop-color:#BC203E"/>
		<stop  offset="0.55" style="stop-color:#ED1C24"/>
		<stop  offset="0.612" style="stop-color:#EF2E20"/>
		<stop  offset="0.7371" style="stop-color:#F45F17"/>
		<stop  offset="0.9123" style="stop-color:#FBAB08"/>
		<stop  offset="1" style="stop-color:#FFD400"/>
	</linearGradient>
	<path class="st38" d="M608.8,56.2c2-0.2,3.4-1.5,3.3-2.8c-0.2-1.3-1.8-2.1-3.8-1.9c-1.9,0.2-3.4,1.4-3.3,2.7
		C605.2,55.5,606.8,56.4,608.8,56.2z"/>
	<linearGradient id="SVGID_38_" gradientUnits="userSpaceOnUse" x1="555.2351" y1="85.0664" x2="650.1597" y2="35.6453">
		<stop  offset="0" style="stop-color:#2D2D8C"/>
		<stop  offset="7.304230e-02" style="stop-color:#3F2B82"/>
		<stop  offset="0.2205" style="stop-color:#702768"/>
		<stop  offset="0.4268" style="stop-color:#BC203E"/>
		<stop  offset="0.55" style="stop-color:#ED1C24"/>
		<stop  offset="0.612" style="stop-color:#EF2E20"/>
		<stop  offset="0.7371" style="stop-color:#F45F17"/>
		<stop  offset="0.9123" style="stop-color:#FBAB08"/>
		<stop  offset="1" style="stop-color:#FFD400"/>
	</linearGradient>
	<path class="st39" d="M616.9,55.2c1.7-0.2,2.9-1.3,2.7-2.4c-0.1-1.1-1.7-1.8-3.3-1.6c-1.7,0.2-2.9,1.2-2.7,2.4
		C613.6,54.6,615.2,55.4,616.9,55.2z"/>
	<linearGradient id="SVGID_39_" gradientUnits="userSpaceOnUse" x1="557.7596" y1="89.9008" x2="652.6747" y2="40.4846">
		<stop  offset="0" style="stop-color:#2D2D8C"/>
		<stop  offset="7.304230e-02" style="stop-color:#3F2B82"/>
		<stop  offset="0.2205" style="stop-color:#702768"/>
		<stop  offset="0.4268" style="stop-color:#BC203E"/>
		<stop  offset="0.55" style="stop-color:#ED1C24"/>
		<stop  offset="0.612" style="stop-color:#EF2E20"/>
		<stop  offset="0.7371" style="stop-color:#F45F17"/>
		<stop  offset="0.9123" style="stop-color:#FBAB08"/>
		<stop  offset="1" style="stop-color:#FFD400"/>
	</linearGradient>
	<path class="st40" d="M617.9,61c1.8-0.2,3-1.4,2.9-2.6c-0.3-1.2-1.8-2-3.6-1.8c-1.7,0.2-3,1.4-2.8,2.6
		C614.6,60.3,616.2,61.2,617.9,61z"/>
	<linearGradient id="SVGID_40_" gradientUnits="userSpaceOnUse" x1="545.0006" y1="65.3775" x2="639.9076" y2="15.9656">
		<stop  offset="0" style="stop-color:#2D2D8C"/>
		<stop  offset="7.304230e-02" style="stop-color:#3F2B82"/>
		<stop  offset="0.2205" style="stop-color:#702768"/>
		<stop  offset="0.4268" style="stop-color:#BC203E"/>
		<stop  offset="0.55" style="stop-color:#ED1C24"/>
		<stop  offset="0.612" style="stop-color:#EF2E20"/>
		<stop  offset="0.7371" style="stop-color:#F45F17"/>
		<stop  offset="0.9123" style="stop-color:#FBAB08"/>
		<stop  offset="1" style="stop-color:#FFD400"/>
	</linearGradient>
	<path class="st41" d="M618.6,25.9c-1.1,0.1-1.9,0.7-1.7,1.3c0.1,0.6,1.1,0.9,2.2,0.8c1.1-0.1,1.9-0.7,1.7-1.3
		C620.6,26.1,619.6,25.8,618.6,25.9z"/>
	<linearGradient id="SVGID_41_" gradientUnits="userSpaceOnUse" x1="556.2107" y1="86.9269" x2="651.1263" y2="37.5104">
		<stop  offset="0" style="stop-color:#2D2D8C"/>
		<stop  offset="7.304230e-02" style="stop-color:#3F2B82"/>
		<stop  offset="0.2205" style="stop-color:#702768"/>
		<stop  offset="0.4268" style="stop-color:#BC203E"/>
		<stop  offset="0.55" style="stop-color:#ED1C24"/>
		<stop  offset="0.612" style="stop-color:#EF2E20"/>
		<stop  offset="0.7371" style="stop-color:#F45F17"/>
		<stop  offset="0.9123" style="stop-color:#FBAB08"/>
		<stop  offset="1" style="stop-color:#FFD400"/>
	</linearGradient>
	<path class="st42" d="M609.4,61.9c2-0.2,3.6-1.6,3.4-3.1c-0.2-1.4-1.9-2.3-3.9-2.1c-2,0.3-3.5,1.6-3.4,3
		C605.6,61.2,607.4,62.2,609.4,61.9z"/>
</g>
</svg>
