<svg xmlns="http://www.w3.org/2000/svg" xmlns:xlink="http://www.w3.org/1999/xlink" viewBox="0 0 645.14 457"><defs><style>.cls-1{fill:none;}.cls-2{isolation:isolate;}.cls-3{fill:#6d6e71;}.cls-17,.cls-4{fill:#231f20;}.cls-5{fill:#913493;}.cls-12,.cls-18,.cls-6{fill:#fff;}.cls-17,.cls-6{opacity:0.8;}.cls-7{fill:#fbad18;}.cls-8{fill:#f04923;}.cls-9{fill:#ed2985;}.cls-10{fill:#50b848;}.cls-11{fill:#187e41;}.cls-12{opacity:0.65;}.cls-13{fill:#c786ba;}.cls-14{fill:#00aee6;}.cls-15{fill:#065baa;}.cls-16{clip-path:url(#clip-path);}.cls-17{mix-blend-mode:multiply;}.cls-18{opacity:0.5;}.cls-19{fill:#74489d;}.cls-20{fill:#583277;}.cls-21{fill:#96658d;}.cls-22{fill:#a51e5e;}</style><clipPath id="clip-path"><path class="cls-1" d="M221.17,132.47l2.17,63.18-2.49-.18c2,30.38,1.62,69.47,1.62,69.47l66.23-66.23h67.21v0l65.26-66.23h0l.65-66.23h0L354.94,0H288.7L221.82,66.24h0l1,64.66ZM352.82,65.61c-.1,1.32-.2,2.63-.31,3.91l3.09-.31.29,60.44-4.09-.3c.07,1,.14,2.1.21,3.12H291.45c-1.38-27.07-2.37-54.64-2.65-63.23l2.45.17c-.06-1.06-.12-2.13-.17-3.2ZM288.7,198.7h0Z"/></clipPath></defs><title>Asset 1</title><g class="cls-2"><g id="Layer_2" data-name="Layer 2"><g id="tagline"><path class="cls-3" d="M13.49,426.69a5.85,5.85,0,0,0-1.88-2.17,5,5,0,0,0-2.87-.8,7.61,7.61,0,0,0-1.62.19,5,5,0,0,0-1.48.59,3.31,3.31,0,0,0-1.06,1,2.75,2.75,0,0,0-.4,1.5,2.5,2.5,0,0,0,1.08,2.26,10.59,10.59,0,0,0,3.25,1.22l3.15.75a7.56,7.56,0,0,1,3.83,2.1A5.43,5.43,0,0,1,17,437.26a6,6,0,0,1-2.65,5.19,8.24,8.24,0,0,1-2.75,1.2,13.37,13.37,0,0,1-3.15.38,11.42,11.42,0,0,1-4.72-1A8.64,8.64,0,0,1,0,439.75l2.68-1.83a7.41,7.41,0,0,0,2.37,2.39,6.29,6.29,0,0,0,3.41.9,8.6,8.6,0,0,0,1.88-.21,5.4,5.4,0,0,0,1.67-.66,3.57,3.57,0,0,0,1.17-1.15,3,3,0,0,0,.45-1.65,2.55,2.55,0,0,0-1.22-2.37,10.57,10.57,0,0,0-3-1.15l-3-.71c-.38-.09-.89-.25-1.53-.47a7.25,7.25,0,0,1-1.88-1,5.76,5.76,0,0,1-1.57-1.71,4.84,4.84,0,0,1-.66-2.61,6.22,6.22,0,0,1,.68-3,5.9,5.9,0,0,1,1.83-2.07,8.66,8.66,0,0,1,2.61-1.2,11.62,11.62,0,0,1,3-.4,10.23,10.23,0,0,1,4.28.9,6.28,6.28,0,0,1,3.05,3.05Z"/><path class="cls-3" d="M40.8,443.46a17.54,17.54,0,0,1-.12-1.76c0-.58,0-1.17,0-1.76h-.1a7.21,7.21,0,0,1-1.31,1.64,8.54,8.54,0,0,1-1.79,1.3,9.72,9.72,0,0,1-2.09.84,8,8,0,0,1-2.19.31c-2.82,0-4.9-.75-6.25-2.23a9.16,9.16,0,0,1-2-6.37v-14H28v12.17a17.3,17.3,0,0,0,.28,3.24,6.11,6.11,0,0,0,1,2.38,4.22,4.22,0,0,0,1.83,1.46,7.54,7.54,0,0,0,2.89.49A10.88,10.88,0,0,0,35.3,441a5.71,5.71,0,0,0,2.28-1,7.55,7.55,0,0,0,2.14-2.54,9.86,9.86,0,0,0,.94-4.7V421.47h3.1v17.15c0,.6,0,1.35.07,2.26s.1,1.77.16,2.58Z"/><path class="cls-3" d="M52.55,428.33c0-1,0-2-.07-3s-.09-2.3-.12-3.9h3v4.09h.1a6.75,6.75,0,0,1,.94-1.72,7.16,7.16,0,0,1,1.48-1.48,7.3,7.3,0,0,1,2-1.06,8.13,8.13,0,0,1,2.61-.4,8.35,8.35,0,0,1,2.3.29l-.61,3.05a5.17,5.17,0,0,0-1.79-.23,6.28,6.28,0,0,0-3.05.68,6.69,6.69,0,0,0-2.12,1.74,7.06,7.06,0,0,0-1.24,2.28,7.39,7.39,0,0,0-.4,2.35v12.4h-3.1Z"/><path class="cls-3" d="M72.29,421.47h3.1v3.66h.09a8,8,0,0,1,1.79-1.92,11.59,11.59,0,0,1,2.16-1.32,10.73,10.73,0,0,1,2.33-.75A11.48,11.48,0,0,1,84,420.9a12.43,12.43,0,0,1,4.72.87,10.89,10.89,0,0,1,6.11,6.09,12.62,12.62,0,0,1,0,9.21,10.89,10.89,0,0,1-6.11,6.09A12.43,12.43,0,0,1,84,444a11.48,11.48,0,0,1-2.28-.24,9.75,9.75,0,0,1-2.33-.75,11,11,0,0,1-2.16-1.31,8.24,8.24,0,0,1-1.79-1.93h-.09V457h-3.1Zm20.06,11a9.84,9.84,0,0,0-.58-3.43,8.45,8.45,0,0,0-1.67-2.78,7.79,7.79,0,0,0-2.61-1.85,8.3,8.3,0,0,0-3.45-.69,8.82,8.82,0,0,0-3.53.69,8.57,8.57,0,0,0-2.77,1.85A8.38,8.38,0,0,0,75.9,429a9.37,9.37,0,0,0,0,6.86,8.34,8.34,0,0,0,1.84,2.77,8.76,8.76,0,0,0,2.77,1.86,9,9,0,0,0,3.53.68,8.46,8.46,0,0,0,3.45-.68,8,8,0,0,0,2.61-1.86,8.41,8.41,0,0,0,1.67-2.77A9.92,9.92,0,0,0,92.35,432.47Z"/><path class="cls-3" d="M103.92,428.33c0-1,0-2-.07-3s-.09-2.3-.12-3.9h3v4.09h.1a6.75,6.75,0,0,1,.94-1.72,7.16,7.16,0,0,1,1.48-1.48,7.3,7.3,0,0,1,2-1.06,8.13,8.13,0,0,1,2.61-.4,8.35,8.35,0,0,1,2.3.29l-.61,3.05a5.17,5.17,0,0,0-1.79-.23,6.28,6.28,0,0,0-3,.68,6.69,6.69,0,0,0-2.12,1.74,7.06,7.06,0,0,0-1.24,2.28,7.39,7.39,0,0,0-.4,2.35v12.4h-3.1Z"/><path class="cls-3" d="M128.17,413a2.08,2.08,0,0,1-.71,1.62,2.22,2.22,0,0,1-3.1,0,2.22,2.22,0,0,1,0-3.24,2.2,2.2,0,0,1,3.1,0A2.08,2.08,0,0,1,128.17,413Zm-.71,30.45h-3.1v-22h3.1Z"/><path class="cls-3" d="M148.47,426.69a5.85,5.85,0,0,0-1.88-2.17,5,5,0,0,0-2.87-.8,7.61,7.61,0,0,0-1.62.19,5,5,0,0,0-1.48.59,3.31,3.31,0,0,0-1.06,1,2.75,2.75,0,0,0-.39,1.5,2.47,2.47,0,0,0,1.08,2.26,10.52,10.52,0,0,0,3.24,1.22l3.15.75a7.56,7.56,0,0,1,3.83,2.1,5.39,5.39,0,0,1,1.53,3.92,6,6,0,0,1-2.66,5.19,8.15,8.15,0,0,1-2.75,1.2,13.31,13.31,0,0,1-3.15.38,11.46,11.46,0,0,1-4.72-1,8.7,8.7,0,0,1-3.74-3.31l2.68-1.83a7.41,7.41,0,0,0,2.37,2.39,6.31,6.31,0,0,0,3.41.9,8.6,8.6,0,0,0,1.88-.21,5.4,5.4,0,0,0,1.67-.66,3.61,3.61,0,0,0,1.18-1.15,3.08,3.08,0,0,0,.44-1.65,2.55,2.55,0,0,0-1.22-2.37,10.45,10.45,0,0,0-3-1.15l-3-.71c-.38-.09-.88-.25-1.53-.47a7.25,7.25,0,0,1-1.88-1,5.76,5.76,0,0,1-1.57-1.71,4.84,4.84,0,0,1-.66-2.61,6.22,6.22,0,0,1,.68-3,5.92,5.92,0,0,1,1.84-2.07,8.49,8.49,0,0,1,2.6-1.2,11.68,11.68,0,0,1,3-.4,10.2,10.2,0,0,1,4.28.9,6.24,6.24,0,0,1,3.05,3.05Z"/><path class="cls-3" d="M163.93,413a2.07,2.07,0,0,1-.7,1.62,2.22,2.22,0,0,1-3.1,0,2.2,2.2,0,0,1,0-3.24,2.2,2.2,0,0,1,3.1,0A2.07,2.07,0,0,1,163.93,413Zm-.7,30.45h-3.1v-22h3.1Z"/><path class="cls-3" d="M175.07,421.47c.07.59.1,1.18.12,1.76s0,1.17,0,1.76h.1a7.21,7.21,0,0,1,1.31-1.64,8.87,8.87,0,0,1,1.79-1.29,9.75,9.75,0,0,1,2.09-.85,8.39,8.39,0,0,1,2.19-.31q4.23,0,6.25,2.24a9.2,9.2,0,0,1,2,6.37v13.95h-3.1V431.29a10.35,10.35,0,0,0-1.27-5.61c-.85-1.3-2.42-2-4.7-2-.16,0-.6.07-1.32.19a5.74,5.74,0,0,0-2.28,1,7.5,7.5,0,0,0-2.14,2.53,9.86,9.86,0,0,0-.94,4.7v11.28h-3.1V426.31c0-.6,0-1.35-.07-2.26s-.1-1.77-.16-2.58Z"/><path class="cls-3" d="M202.05,447.88a10,10,0,0,0,3.55,2.94,10.59,10.59,0,0,0,4.86,1.1,10.36,10.36,0,0,0,4-.68,6.83,6.83,0,0,0,2.65-1.85,7.15,7.15,0,0,0,1.46-2.75,12.18,12.18,0,0,0,.45-3.36v-3.95h-.1a8.42,8.42,0,0,1-3.66,3.19,11.25,11.25,0,0,1-4.56.94,11.91,11.91,0,0,1-4.49-.84,11.47,11.47,0,0,1-3.64-2.33,10.63,10.63,0,0,1-2.45-3.55,11.2,11.2,0,0,1-.89-4.46,11.65,11.65,0,0,1,3.17-8.09,10.53,10.53,0,0,1,3.53-2.42,11.34,11.34,0,0,1,4.49-.87,13.19,13.19,0,0,1,2.09.19,10.48,10.48,0,0,1,2.21.66A10.13,10.13,0,0,1,216.9,423a10.34,10.34,0,0,1,2,2.09h.1v-3.66h3.1v21.81a17.44,17.44,0,0,1-.45,3.8,9.2,9.2,0,0,1-1.74,3.72,10.07,10.07,0,0,1-3.59,2.82,13.79,13.79,0,0,1-6,1.12,15.09,15.09,0,0,1-5.87-1.08,13.61,13.61,0,0,1-4.7-3.33Zm.56-15.7a8.58,8.58,0,0,0,2.38,5.95,8.3,8.3,0,0,0,2.58,1.83,7.53,7.53,0,0,0,3.22.68A8.54,8.54,0,0,0,214,440a8.44,8.44,0,0,0,2.7-1.71,7.36,7.36,0,0,0,1.81-2.66,8.44,8.44,0,0,0,.59-3.48,9.5,9.5,0,0,0-.56-3.26,7.78,7.78,0,0,0-4.28-4.51,8.45,8.45,0,0,0-3.48-.69,7.54,7.54,0,0,0-3.22.69,8.3,8.3,0,0,0-2.58,1.83,8.58,8.58,0,0,0-2.38,5.94Z"/><path class="cls-3" d="M234.29,443.46h-3.1V407.93h3.1Z"/><path class="cls-3" d="M253.23,439.66,260,421.47h3.76l-11,27.73a11.35,11.35,0,0,1-2.52,4,6,6,0,0,1-4.39,1.5c-.47,0-.95,0-1.44,0a5.94,5.94,0,0,1-1.43-.28l.33-3a5.06,5.06,0,0,0,2.35.51,3.29,3.29,0,0,0,2.58-1,9,9,0,0,0,1.65-2.91l1.6-4.23-9-22.28h3.9Z"/><path class="cls-3" d="M300.42,426.69a5.85,5.85,0,0,0-1.88-2.17,5,5,0,0,0-2.87-.8,7.61,7.61,0,0,0-1.62.19,5,5,0,0,0-1.48.59,3.31,3.31,0,0,0-1.06,1,2.75,2.75,0,0,0-.4,1.5,2.48,2.48,0,0,0,1.09,2.26,10.52,10.52,0,0,0,3.24,1.22l3.15.75a7.56,7.56,0,0,1,3.83,2.1,5.39,5.39,0,0,1,1.53,3.92,6,6,0,0,1-2.66,5.19,8.24,8.24,0,0,1-2.75,1.2,13.31,13.31,0,0,1-3.15.38,11.46,11.46,0,0,1-4.72-1,8.7,8.7,0,0,1-3.74-3.31l2.68-1.83a7.41,7.41,0,0,0,2.37,2.39,6.31,6.31,0,0,0,3.41.9,8.6,8.6,0,0,0,1.88-.21,5.4,5.4,0,0,0,1.67-.66,3.48,3.48,0,0,0,1.17-1.15,3,3,0,0,0,.45-1.65,2.55,2.55,0,0,0-1.22-2.37,10.57,10.57,0,0,0-3-1.15l-3-.71c-.38-.09-.89-.25-1.53-.47a7.25,7.25,0,0,1-1.88-1,5.76,5.76,0,0,1-1.57-1.71,4.84,4.84,0,0,1-.66-2.61,6.22,6.22,0,0,1,.68-3,6,6,0,0,1,1.83-2.07,8.66,8.66,0,0,1,2.61-1.2,11.62,11.62,0,0,1,3-.4,10.2,10.2,0,0,1,4.28.9,6.28,6.28,0,0,1,3.05,3.05Z"/><path class="cls-3" d="M324.39,424.29h-6.34v13a7,7,0,0,0,.23,2,3,3,0,0,0,.66,1.2,2.27,2.27,0,0,0,1,.58,4.74,4.74,0,0,0,1.29.17,6.1,6.1,0,0,0,1.65-.24,7.36,7.36,0,0,0,1.55-.61l.14,2.87a10,10,0,0,1-4.18.8,7.66,7.66,0,0,1-1.86-.24,4.26,4.26,0,0,1-1.76-.89,4.75,4.75,0,0,1-1.32-1.79,7.21,7.21,0,0,1-.52-3V424.29h-4.65v-2.82h4.65v-6.21h3.11v6.21h6.34Z"/><path class="cls-3" d="M333.18,428.33c0-1,0-2-.07-3s-.09-2.3-.12-3.9h3.06v4.09h.09a6.75,6.75,0,0,1,.94-1.72,7.41,7.41,0,0,1,1.48-1.48,7.3,7.3,0,0,1,2-1.06,8.13,8.13,0,0,1,2.61-.4,8.3,8.3,0,0,1,2.3.29l-.61,3.05a5.14,5.14,0,0,0-1.78-.23,6.32,6.32,0,0,0-3.06.68,6.54,6.54,0,0,0-2.11,1.74,7.09,7.09,0,0,0-1.25,2.28,7.39,7.39,0,0,0-.4,2.35v12.4h-3.1Z"/><path class="cls-3" d="M366.78,430v-.57q0-5.69-5.64-5.69a9.73,9.73,0,0,0-6.72,2.59l-1.88-2.21q3.1-3.19,9.31-3.2a10.27,10.27,0,0,1,3.08.47,6.86,6.86,0,0,1,4.3,3.86,8.38,8.38,0,0,1,.66,3.48v9.82c0,.85,0,1.73.11,2.66s.17,1.68.26,2.27h-3c-.09-.53-.16-1.11-.21-1.73s-.07-1.24-.07-1.84h-.09a8.33,8.33,0,0,1-3.22,3.17,9.67,9.67,0,0,1-4.54,1,10.22,10.22,0,0,1-2.82-.4,7.26,7.26,0,0,1-2.42-1.22,6.23,6.23,0,0,1-1.69-2,6,6,0,0,1-.63-2.8,6.05,6.05,0,0,1,1.38-4.21,8.52,8.52,0,0,1,3.48-2.28,17.33,17.33,0,0,1,4.46-.94q2.39-.18,4.35-.18Zm-1.59,2.53q-1.19,0-2.94.12a17.78,17.78,0,0,0-3.39.56,7.45,7.45,0,0,0-2.77,1.39,3.16,3.16,0,0,0-1.15,2.59,3.58,3.58,0,0,0,1.64,3.12,5.08,5.08,0,0,0,1.67.71,8.29,8.29,0,0,0,1.86.21,7,7,0,0,0,2.94-.57,5.91,5.91,0,0,0,3.33-3.78,9.15,9.15,0,0,0,.4-2.75v-1.6Z"/><path class="cls-3" d="M382.53,413a2.08,2.08,0,0,1-.71,1.62,2.22,2.22,0,0,1-3.1,0,2.22,2.22,0,0,1,0-3.24,2.2,2.2,0,0,1,3.1,0A2.08,2.08,0,0,1,382.53,413Zm-.71,30.45h-3.1v-22h3.1Z"/><path class="cls-3" d="M392.87,447.88a10,10,0,0,0,3.55,2.94,10.56,10.56,0,0,0,4.86,1.1,10.36,10.36,0,0,0,4-.68,6.9,6.9,0,0,0,2.65-1.85,7.28,7.28,0,0,0,1.46-2.75,12.18,12.18,0,0,0,.44-3.36v-3.95h-.09a8.42,8.42,0,0,1-3.66,3.19,11.32,11.32,0,0,1-4.56.94,11.91,11.91,0,0,1-4.49-.84,11.51,11.51,0,0,1-3.65-2.33,10.75,10.75,0,0,1-2.44-3.55,11,11,0,0,1-.89-4.46,11.54,11.54,0,0,1,3.17-8.09,10.53,10.53,0,0,1,3.53-2.42,11.29,11.29,0,0,1,4.48-.87,13.2,13.2,0,0,1,2.1.19,10.23,10.23,0,0,1,2.2.66,10,10,0,0,1,2.19,1.29,10.61,10.61,0,0,1,2,2.09h.09v-3.66h3.11v21.81a17.44,17.44,0,0,1-.45,3.8,9.47,9.47,0,0,1-1.74,3.72,10.07,10.07,0,0,1-3.59,2.82,13.82,13.82,0,0,1-6,1.12,15.18,15.18,0,0,1-5.88-1.08,13.7,13.7,0,0,1-4.7-3.33Zm.56-15.7a8.33,8.33,0,0,0,.64,3.27,8.49,8.49,0,0,0,1.74,2.68,8.18,8.18,0,0,0,2.58,1.83,7.53,7.53,0,0,0,3.22.68,8.54,8.54,0,0,0,3.22-.61,8.44,8.44,0,0,0,2.7-1.71,7.48,7.48,0,0,0,1.81-2.66,8.6,8.6,0,0,0,.59-3.48,9.5,9.5,0,0,0-.56-3.26,7.78,7.78,0,0,0-4.28-4.51,8.51,8.51,0,0,0-3.48-.69,7.54,7.54,0,0,0-3.22.69,8.18,8.18,0,0,0-2.58,1.83,8.49,8.49,0,0,0-1.74,2.68A8.31,8.31,0,0,0,393.43,432.18Z"/><path class="cls-3" d="M421.77,407.93h3.1V425h.1a7.21,7.21,0,0,1,1.31-1.64,8.87,8.87,0,0,1,1.79-1.29,9.75,9.75,0,0,1,2.09-.85,8.39,8.39,0,0,1,2.19-.31q4.23,0,6.25,2.24a9.16,9.16,0,0,1,2,6.37v13.95h-3.1V431.29a10.35,10.35,0,0,0-1.27-5.61c-.85-1.3-2.42-2-4.7-2-.16,0-.6.07-1.32.19a5.74,5.74,0,0,0-2.28,1,7.5,7.5,0,0,0-2.14,2.53,9.86,9.86,0,0,0-.94,4.7v11.28h-3.1Z"/><path class="cls-3" d="M461.63,424.29h-6.35v13a6.91,6.91,0,0,0,.24,2,2.76,2.76,0,0,0,.66,1.2,2.22,2.22,0,0,0,1,.58,4.74,4.74,0,0,0,1.29.17,6,6,0,0,0,1.64-.24,7.24,7.24,0,0,0,1.56-.61l.14,2.87a10,10,0,0,1-4.19.8,7.64,7.64,0,0,1-1.85-.24,4.3,4.3,0,0,1-1.77-.89,4.84,4.84,0,0,1-1.31-1.79,7,7,0,0,1-.52-3V424.29h-4.65v-2.82h4.65v-6.21h3.1v6.21h6.35Z"/><path class="cls-3" d="M482,424.29h-5.22v19.17h-3.1V424.29H469v-2.82h4.65v-6c0-2.91.67-5,2-6.22a7.6,7.6,0,0,1,5.36-1.86,10.28,10.28,0,0,1,1.34.09c.45.07.9.14,1.34.24l-.57,2.82c-.37-.1-.76-.17-1.17-.24a8.45,8.45,0,0,0-1.22-.09,4.43,4.43,0,0,0-2.07.42,2.88,2.88,0,0,0-1.22,1.2,5.2,5.2,0,0,0-.57,1.81,17.12,17.12,0,0,0-.14,2.21v5.64H482Z"/><path class="cls-3" d="M511.17,432.47a12,12,0,0,1-.87,4.6,10.89,10.89,0,0,1-6.11,6.09,12.45,12.45,0,0,1-4.73.87,12.25,12.25,0,0,1-4.67-.87,10.89,10.89,0,0,1-6.11-6.09,12.62,12.62,0,0,1,0-9.21,10.89,10.89,0,0,1,6.11-6.09,12.25,12.25,0,0,1,4.67-.87,12.45,12.45,0,0,1,4.73.87,10.89,10.89,0,0,1,6.11,6.09A12,12,0,0,1,511.17,432.47Zm-3.39,0a9.62,9.62,0,0,0-.59-3.43,8.26,8.26,0,0,0-1.66-2.78,8,8,0,0,0-2.61-1.85,9,9,0,0,0-6.91,0,7.61,7.61,0,0,0-2.59,1.85,8.56,8.56,0,0,0-1.64,2.78,10.27,10.27,0,0,0,0,6.86,8.51,8.51,0,0,0,1.64,2.77,7.77,7.77,0,0,0,2.59,1.86,9.12,9.12,0,0,0,6.91,0,7.87,7.87,0,0,0,4.27-4.63A9.7,9.7,0,0,0,507.78,432.47Z"/><path class="cls-3" d="M519,428.33c0-1,0-2-.07-3s-.08-2.3-.11-3.9h3v4.09H522a6.79,6.79,0,0,1,.95-1.72,7.27,7.27,0,0,1,3.5-2.54,8,8,0,0,1,2.61-.4,8.35,8.35,0,0,1,2.3.29l-.61,3.05a5.2,5.2,0,0,0-1.79-.23,6.28,6.28,0,0,0-3,.68,6.69,6.69,0,0,0-2.12,1.74,7.06,7.06,0,0,0-1.24,2.28,7.39,7.39,0,0,0-.4,2.35v12.4H519Z"/><path class="cls-3" d="M541.81,421.47l5.07,17.86h.1l5.87-17.86h3.2l5.87,17.86h.1l5.07-17.86h3.67l-7,22h-3.47l-5.83-18h-.1l-5.82,18H545.1l-7-22Z"/><path class="cls-3" d="M592.19,430v-.57q0-5.69-5.64-5.69a9.73,9.73,0,0,0-6.72,2.59L578,424.1q3.1-3.19,9.31-3.2a10.15,10.15,0,0,1,3.07.47,6.84,6.84,0,0,1,4.31,3.86,8.54,8.54,0,0,1,.65,3.48v9.82c0,.85,0,1.73.12,2.66s.17,1.68.26,2.27h-3c-.09-.53-.16-1.11-.21-1.73s-.07-1.24-.07-1.84h-.09a8.39,8.39,0,0,1-3.22,3.17,9.67,9.67,0,0,1-4.54,1,10.22,10.22,0,0,1-2.82-.4,7.26,7.26,0,0,1-2.42-1.22,6.11,6.11,0,0,1-1.69-2,5.84,5.84,0,0,1-.64-2.8,6.05,6.05,0,0,1,1.39-4.21,8.39,8.39,0,0,1,3.48-2.28,17.33,17.33,0,0,1,4.46-.94q2.38-.18,4.35-.18Zm-1.6,2.53c-.78,0-1.76,0-2.93.12a17.65,17.65,0,0,0-3.39.56,7.45,7.45,0,0,0-2.77,1.39,3.16,3.16,0,0,0-1.15,2.59,3.7,3.7,0,0,0,.44,1.85,3.74,3.74,0,0,0,1.2,1.27,5.08,5.08,0,0,0,1.67.71,8.29,8.29,0,0,0,1.86.21,7,7,0,0,0,2.94-.57,5.91,5.91,0,0,0,3.33-3.78,9.15,9.15,0,0,0,.4-2.75v-1.6Z"/><path class="cls-3" d="M604.22,428.33c0-1,0-2-.07-3s-.08-2.3-.11-3.9h3.05v4.09h.09a6.79,6.79,0,0,1,1-1.72,7.27,7.27,0,0,1,3.5-2.54,8,8,0,0,1,2.61-.4,8.35,8.35,0,0,1,2.3.29l-.61,3.05a5.2,5.2,0,0,0-1.79-.23,6.28,6.28,0,0,0-3,.68,6.69,6.69,0,0,0-2.12,1.74,7.06,7.06,0,0,0-1.24,2.28,7.39,7.39,0,0,0-.4,2.35v12.4h-3.11Z"/><path class="cls-3" d="M645.07,443.46H642V439.8h-.09a8.24,8.24,0,0,1-1.79,1.93,11,11,0,0,1-2.16,1.31,9.82,9.82,0,0,1-2.32.75,11.64,11.64,0,0,1-2.28.24,12.45,12.45,0,0,1-4.73-.87,10.89,10.89,0,0,1-6.11-6.09,12.62,12.62,0,0,1,0-9.21,10.89,10.89,0,0,1,6.11-6.09,12.45,12.45,0,0,1,4.73-.87,11.64,11.64,0,0,1,2.28.24,10.83,10.83,0,0,1,2.32.75,11.59,11.59,0,0,1,2.16,1.32,8,8,0,0,1,1.79,1.92H642v-17.2h3.11Zm-20.07-11a9.92,9.92,0,0,0,.58,3.43,8.41,8.41,0,0,0,1.67,2.77,8,8,0,0,0,2.61,1.86,8.48,8.48,0,0,0,3.46.68,9,9,0,0,0,3.5-.68,8.74,8.74,0,0,0,2.79-1.86,8.34,8.34,0,0,0,1.84-2.77,9.24,9.24,0,0,0,0-6.86,8.38,8.38,0,0,0-1.84-2.78,8.55,8.55,0,0,0-2.79-1.85,8.85,8.85,0,0,0-3.5-.69,8.32,8.32,0,0,0-3.46.69,7.79,7.79,0,0,0-2.61,1.85,8.45,8.45,0,0,0-1.67,2.78A9.84,9.84,0,0,0,625,432.47Z"/></g><g id="primesuper"><path class="cls-4" d="M38.15,356H22.68a11.64,11.64,0,0,1-9.14-4.31v35.65a1.5,1.5,0,0,1-1.48,1.48H1.83V292.91a4.22,4.22,0,0,1,4.31-4.17h32c10.77,0,19.64,5.65,19.64,19V337C57.79,348.33,48.92,356,38.15,356Zm7.94-48.29c0-6.19-3.63-7.94-7.94-7.94H15a1.49,1.49,0,0,0-1.48,1.48V338A7.44,7.44,0,0,0,20,344.83H38.15a7.94,7.94,0,0,0,7.94-7.93Z"/><path class="cls-4" d="M109.05,288.74v9.68a1.49,1.49,0,0,1-1.48,1.48H90.75A6.48,6.48,0,0,0,84.3,306v50H74.07a1.5,1.5,0,0,1-1.48-1.48V288.74H82.82a1.39,1.39,0,0,1,1.48,1.34v3a11.28,11.28,0,0,1,9.14-4.3Z"/><path class="cls-4" d="M136.09,260.08v11H125.87a1.5,1.5,0,0,1-1.48-1.48v-11h10.22A1.5,1.5,0,0,1,136.09,260.08Zm0,30V356H125.87a1.49,1.49,0,0,1-1.48-1.48V288.74h10.22A1.38,1.38,0,0,1,136.09,290.08Z"/><path class="cls-4" d="M232.54,308.38V356H222.32a1.49,1.49,0,0,1-1.48-1.48V307.71a8,8,0,0,0-7.94-7.94H195.41a4.55,4.55,0,0,1,2.42,3.77V356H187.61a1.49,1.49,0,0,1-1.48-1.48V301.25a1.49,1.49,0,0,0-1.48-1.48H164.34A1.44,1.44,0,0,0,163,301v53.54a1.49,1.49,0,0,1-1.48,1.48H151.29V297.48a8.72,8.72,0,0,1,8.74-8.74H212.9A19.57,19.57,0,0,1,232.54,308.38Z"/><path class="cls-4" d="M247.21,336.36V307.84c0-12.51,8.74-19.1,19.64-19.1h18c10.9,0,19.64,6.59,19.64,19.1v15.47c0,2.29-.26,4.17-3.49,4.17H264.16a6.44,6.44,0,0,1-5.25-2.56v12a7.86,7.86,0,0,0,7.94,7.93h33.36a1.5,1.5,0,0,1,1.48,1.48V356H266.85A19.58,19.58,0,0,1,247.21,336.36Zm19.64-36.59c-4.44,0-7.94,2.55-7.94,7.94V315a1.47,1.47,0,0,0,1.35,1.48H291.6a1.49,1.49,0,0,0,1.48-1.48v-7.26c0-5.39-2.56-7.94-7.8-7.94Z"/><path class="cls-3" d="M319.72,315.51v-9c0-10.89,7.53-17.75,18.43-17.75H375v9.55a1.5,1.5,0,0,1-1.48,1.48H338.15c-4.44,0-6.73,2.15-6.73,6.59v3.9a1.72,1.72,0,0,0,1.21,1.48l41.57,9.82a4.47,4.47,0,0,1,3.63,4.44v12c0,11.71-8.34,18-19.24,18H320.53v-9.55A1.49,1.49,0,0,1,322,345h36.59c4.44,0,8.35-2.56,8.35-7v-6.32a1.43,1.43,0,0,0-1.22-1.34L323.48,320A4.6,4.6,0,0,1,319.72,315.51Z"/><path class="cls-3" d="M402.59,288.6a1.5,1.5,0,0,1,1.48,1.48V336.9a7.85,7.85,0,0,0,7.93,7.93h17.76a8,8,0,0,0,8.07-7.93V290.08a1.5,1.5,0,0,1,1.48-1.48h10.22v47.76A19.69,19.69,0,0,1,429.76,356H412a19.59,19.59,0,0,1-19.64-19.64V288.6Z"/><path class="cls-3" d="M501.19,356H485.72a11.64,11.64,0,0,1-9.14-4.31v35.65a1.5,1.5,0,0,1-1.48,1.48H464.87V292.91a4.22,4.22,0,0,1,4.31-4.17h32c10.77,0,19.64,5.65,19.64,19V337C520.83,348.33,512,356,501.19,356Zm7.94-48.29c0-6.19-3.63-7.94-7.94-7.94H478.06a1.49,1.49,0,0,0-1.48,1.48V338a7.45,7.45,0,0,0,6.45,6.86h18.16a7.94,7.94,0,0,0,7.94-7.93Z"/><path class="cls-3" d="M536.31,336.36V307.84c0-12.51,8.74-19.1,19.64-19.1h18c10.9,0,19.64,6.59,19.64,19.1v15.47c0,2.29-.27,4.17-3.5,4.17H553.26a6.42,6.42,0,0,1-5.25-2.56v12a7.86,7.86,0,0,0,7.94,7.93h33.36a1.5,1.5,0,0,1,1.48,1.48V356H556A19.58,19.58,0,0,1,536.31,336.36ZM556,299.77c-4.44,0-7.94,2.55-7.94,7.94V315a1.47,1.47,0,0,0,1.34,1.48H580.7a1.5,1.5,0,0,0,1.48-1.48v-7.26c0-5.39-2.56-7.94-7.8-7.94Z"/><path class="cls-3" d="M645.14,288.74v9.68a1.5,1.5,0,0,1-1.48,1.48H626.84a6.49,6.49,0,0,0-6.46,6.06v50H610.16a1.49,1.49,0,0,1-1.48-1.48V288.74H618.9a1.38,1.38,0,0,1,1.48,1.34v3a11.32,11.32,0,0,1,9.15-4.3Z"/></g><g id="P"><polygon class="cls-5" points="354.94 0 288.7 66.24 354.94 65.59 354.94 0"/><polygon class="cls-6" points="354.94 0 288.7 66.24 290.32 66.2 354.94 1.62 354.94 0"/><polygon class="cls-7" points="223.44 198.7 288.7 132.47 221.17 132.47 223.44 198.7"/><polygon class="cls-8" points="288.7 132.47 223.44 198.7 288.7 198.7 288.7 132.47"/><polygon class="cls-6" points="288.7 132.47 223.44 198.7 225.06 198.7 288.7 134.09 288.7 132.47"/><polygon class="cls-9" points="222.79 132.47 288.7 66.24 221.82 66.24 222.79 132.47"/><polygon class="cls-10" points="355.91 132.47 421.82 66.24 355.58 66.24 355.91 132.47"/><polygon class="cls-11" points="421.82 66.23 355.91 132.47 421.17 132.47 421.82 66.23"/><polygon class="cls-12" points="421.82 66.23 355.91 132.47 357.53 132.47 421.82 67.85 421.82 66.23"/><polygon class="cls-13" points="288.7 66.24 354.94 0 288.7 0 288.7 66.24"/><polygon class="cls-14" points="288.7 198.71 355.91 132.47 288.7 132.47 288.7 198.71"/><polygon class="cls-15" points="355.91 132.47 288.7 198.71 355.91 198.71 355.91 132.47"/><polygon class="cls-12" points="355.91 132.47 288.7 198.71 290.32 198.71 355.91 134.09 355.91 132.47"/><g class="cls-16"><path class="cls-17" d="M354.94,0l66.88,66.23s-35,1.36-62.8,9.56C359.91,42.66,354.94,0,354.94,0Z"/><path class="cls-17" d="M421.17,132.47,355.91,198.7s-3.8-30.19-8.55-56.19a1.6,1.6,0,0,0-.76-.87s-.63-3.79-.75-4.42c.76,0,5.14.12,5.14.12a6.27,6.27,0,0,1,1.36-.21C383,138,421.17,132.47,421.17,132.47Z"/><path class="cls-17" d="M222.47,264.94,288.7,198.7s-31.08-2.48-56.53-7.09a4.45,4.45,0,0,0-1.76,0s-2.29-.23-3.28-.39c0,.66.06,3.7.06,3.7a12.25,12.25,0,0,0-.18,1.79C227.08,228.8,222.47,264.94,222.47,264.94Z"/><path class="cls-17" d="M221.82,66.24,288.7,0s-3.7,41.55-5.46,76.44C255.27,69.84,221.82,66.24,221.82,66.24Z"/></g><path class="cls-8" d="M354.94,0l66.88,66.23s-37.63.06-69.31,3.29C354.86,41.65,354.94,0,354.94,0Z"/><polygon class="cls-18" points="354.94 0 421.82 66.24 420.2 66.27 354.91 1.62 354.94 0"/><path class="cls-19" d="M222.47,264.94,288.7,198.7s-41.26-1.3-67.85-3.23C222.8,225.85,222.47,264.94,222.47,264.94Z"/><polygon class="cls-20" points="222.47 264.94 288.7 198.71 287.08 198.71 222.5 263.32 222.47 264.94"/><path class="cls-13" d="M421.17,132.47,355.91,198.7s-2.06-41.48-4.11-69.35C382.89,131.7,421.17,132.47,421.17,132.47Z"/><polygon class="cls-21" points="421.17 132.47 355.91 198.71 355.84 197.09 419.52 132.47 421.17 132.47"/><path class="cls-22" d="M221.17,132.47,288.7,66.24c0,.62,1.88,50,2.87,68.43C259.33,132.33,221.17,132.47,221.17,132.47Z"/><polygon class="cls-12" points="221.17 132.47 288.7 66.23 288.74 67.85 222.79 132.5 221.17 132.47"/><path class="cls-17" d="M283.29,73.23a16.32,16.32,0,0,1,.18-1.86l-4.23,4.15a7.28,7.28,0,0,1,1.67,0c.51.08,1.87.32,2.3.38C283.21,75.91,283.27,74.11,283.29,73.23Z"/><path class="cls-19" d="M221.82,66.24,288.7,0s.73,34.88,2.55,69.41C259,67.06,221.82,66.24,221.82,66.24Z"/><polygon class="cls-12" points="221.82 66.24 288.7 0 288.74 1.62 223.44 66.27 221.82 66.24"/></g></g></g></svg>